Format                                   : Matroska
Format version                           : Version 2
File size                                : 782 MiB
Duration                                 : 1h 33mn
Overall bit rate                         : 1 171 Kbps
Movie name                               : Werewolf The Beast Among Us (2012).Unrated.720p.x264.[Dual Audio] [Hindi+English].by K@rtik [ExD Exclusive]

Codec ID                                 : V_MPEG4/ISO/AVC
Duration                                 : 1h 33mn
Bit rate                                 : 916 Kbps
Width                                    : 1 280 pixels
Height                                   : 720 pixels
Display aspect ratio                     : 16:9
Frame rate mode                          : Constant
Frame rate                               : 23.976 fps
Color space                              : YUV
Chroma subsampling                       : 4:2:0
Bit depth                                : 8 bits
Scan type                                : Progressive
Bits/(Pixel*Frame)                       : 0.041
Stream size                              : 596 MiB (76%)

Codec ID                                 : A_AC3
Duration                                 : 1h 33mn
Bit rate mode                            : Constant
Bit rate                                 : 128 Kbps
Channel(s)                               : 6 channels
Channel positions                        : Front: L C R, Side: L R, LFE
Sampling rate                            : 48.0 KHz
Bit depth                                : 16 bits
Compression mode                         : Lossy
Stream size                              : 85.5 MiB (11%)
Title                                    : K@rtik
Language                                 : English

Codec ID                                 : A_AC3
Duration                                 : 1h 33mn
Bit rate mode                            : Constant
Bit rate                                 : 128 Kbps
Channel(s)                               : 2 channels
Channel positions                        : Front: L R
Sampling rate                            : 44.1 KHz
Bit depth                                : 16 bits
Compression mode                         : Lossy
Delay relative to video                  : 500ms
Stream size                              : 85.5 MiB (11%)
Title                                    : K@rtik
Language                                 : Hindi
 
http://img853.imageshack.us/img853/1295/97651825.png 
http://img707.imageshack.us/img707/8238/82724694.png 
http://img846.imageshack.us/img846/4473/91698530.png 
http://img837.imageshack.us/img837/641/10058122.png 
http://img715.imageshack.us/img715/9199/36748453.png 
http://img87.imageshack.us/img87/5599/52727474.png 
http://img26.imageshack.us/img26/9525/78599721.png 
http://img26.imageshack.us/img26/6058/13467327.png 
http://img528.imageshack.us/img528/4074/59037181.png 
http://img16.imageshack.us/img16/6001/92991137.png 
http://img690.imageshack.us/img690/5521/80551624.png